<?xml version="1.0" encoding="UTF-8" standalone="no"?>
<!-- Created with Inkscape (http://www.inkscape.org/) -->

<svg
   width="512"
   height="512"
   viewBox="0 0 512 512"
   version="1.1"
   id="svg5"
   xml:space="preserve"
   inkscape:export-filename="gate_caller_splash2.svg"
   inkscape:export-xdpi="96"
   inkscape:export-ydpi="96"
   xmlns:inkscape="http://www.inkscape.org/namespaces/inkscape"
   xmlns:sodipodi="http://sodipodi.sourceforge.net/DTD/sodipodi-0.dtd"
   xmlns="http://www.w3.org/2000/svg"
   xmlns:svg="http://www.w3.org/2000/svg"><sodipodi:namedview
     id="namedview7"
     pagecolor="#505050"
     bordercolor="#eeeeee"
     borderopacity="1"
     inkscape:showpageshadow="0"
     inkscape:pageopacity="0"
     inkscape:pagecheckerboard="0"
     inkscape:deskcolor="#505050"
     inkscape:document-units="px"
     showgrid="true"
     inkscape:lockguides="false" /><defs
     id="defs2"><style
       id="style168">.cls-1{fill:none;stroke:#333;stroke-linecap:round;stroke-linejoin:round;stroke-width:2px;}</style></defs><g
     inkscape:label="Layer 1"
     inkscape:groupmode="layer"
     id="layer1"><g
       id="g1191"
       transform="translate(0,-9.6695102)"><g
         id="Layer_2-2"
         data-name="Layer 2"
         transform="matrix(7,0,0,7,97.099995,81.660983)"><polygon
           class="cls-1"
           points="13.75,30.56 6.16,30.56 6.16,5.63 9.83,1 13.75,5.63 "
           id="polygon174" /><polygon
           class="cls-1"
           points="26.49,30.56 18.91,30.56 18.91,5.63 22.58,1 26.49,5.63 "
           id="polygon176" /><polygon
           class="cls-1"
           points="39.24,30.56 31.65,30.56 31.65,5.63 35.32,1 39.24,5.63 "
           id="polygon178" /><rect
           class="cls-1"
           x="13.75"
           y="21.139999"
           width="5.1599998"
           height="4.21"
           id="rect180" /><rect
           class="cls-1"
           x="26.49"
           y="21.139999"
           width="5.1599998"
           height="4.21"
           id="rect182" /><rect
           class="cls-1"
           x="13.75"
           y="10.22"
           width="5.1599998"
           height="4.21"
           id="rect184" /><rect
           class="cls-1"
           x="1"
           y="21.139999"
           width="5.1599998"
           height="4.21"
           id="rect186" /><rect
           class="cls-1"
           x="1"
           y="10.22"
           width="5.1599998"
           height="4.21"
           id="rect188" /><rect
           class="cls-1"
           x="26.49"
           y="10.22"
           width="5.1599998"
           height="4.21"
           id="rect190" /><rect
           class="cls-1"
           x="39.240002"
           y="21.139999"
           width="5.1599998"
           height="4.21"
           id="rect192" /><rect
           class="cls-1"
           x="39.240002"
           y="10.22"
           width="5.1599998"
           height="4.21"
           id="rect194" /></g><path
         style="fill:#f9f9f9;stroke-width:0.840828"
         d="m 135.75544,300.20575 c -2.0463,-2.0463 -2.06385,-2.19958 -2.06385,-18.02682 v -15.96299 l -16.05026,-0.26117 -16.05027,-0.26117 -2.027528,-2.35916 c -1.996519,-2.32309 -2.027527,-2.61622 -2.027527,-19.16705 0,-22.48995 -1.495428,-20.93558 20.141645,-20.93558 h 16.01394 V 206.41526 189.5987 h -15.4908 c -15.43862,0 -15.49951,-0.007 -18.07779,-2.17681 l -2.586995,-2.17682 v -17.20044 c 0,-22.9475 -1.529277,-21.32814 20.141645,-21.32814 h 16.01394 l 0.023,-14.08386 0.0229,-14.08387 13.68116,-17.22754 c 7.52464,-9.475148 14.63501,-17.762928 15.80084,-18.417288 3.99921,-2.2447 5.7671,-0.846338 19.74905,15.621092 19.28156,22.709116 17.14845,18.419966 17.14845,34.481166 v 13.7103 h 11.35117 11.35117 v -13.93922 -13.93922 l 14.00843,-17.67125 c 7.70465,-9.719191 14.86582,-18.061903 15.91373,-18.539361 3.82463,-1.742618 5.75869,-0.153757 19.40598,15.942281 7.35625,8.6762 14.21251,16.86646 15.23612,18.20058 1.74632,2.27603 1.86112,3.27451 1.86112,16.18593 v 13.76026 h 11.35118 11.35117 v -13.89861 -13.89861 l 14.01983,-17.71705 c 7.7109,-9.744378 14.87207,-18.105364 15.91371,-18.579969 3.89326,-1.773886 5.83364,-0.177855 19.85522,16.331661 7.53155,8.867918 14.35338,17.093728 15.15963,18.279578 1.24475,1.83081 1.46675,4.21751 1.47145,15.81955 l 0.006,13.66345 h 16.01394 c 21.64683,0 20.14165,-1.57284 20.14165,21.04716 v 16.91945 l -2.45781,2.4578 -2.45779,2.4578 h -15.62 -15.61999 v 16.81656 16.81655 h 16.01394 c 21.63708,0 20.14165,-1.55437 20.14165,20.93558 0,16.55083 -0.031,16.84396 -2.02753,19.16705 l -2.02752,2.35916 -16.05027,0.26117 -16.05027,0.26117 v 15.96299 c 0,15.82724 -0.0176,15.98052 -2.06385,18.02682 l -2.06385,2.06385 -28.83657,-0.0267 c -21.34179,-0.0198 -29.1833,-0.29296 -30.17067,-1.05104 -2.904,-2.22963 -3.29044,-4.56528 -3.29044,-19.88764 v -15.1902 H 300.59588 289.2447 v 15.19017 c 0,15.32236 -0.38643,17.65801 -3.29044,19.88764 -0.98702,0.75781 -8.79444,1.03125 -30.00968,1.05104 l -28.67556,0.0267 -2.22485,-2.06191 -2.22485,-2.06192 v -16.01585 -16.01587 h -11.35117 -11.35117 v 15.09533 c 0,16.09176 -0.48051,18.56139 -3.91601,20.12671 -1.37134,0.62482 -11.36356,0.93354 -30.2153,0.93354 h -28.16638 z m 50.90829,-94.15795 v -82.76858 l -10.12657,-11.85151 c -5.56962,-6.51834 -10.47849,-11.634028 -10.9086,-11.3682 -0.43011,0.26582 -4.7649,5.53759 -9.63287,11.71504 l -8.85085,11.23173 v 82.90504 82.90504 h 19.75944 19.75945 z m 89.12773,0.0158 v -82.75279 l -9.78433,-11.63012 c -5.38138,-6.39656 -10.0634,-11.740353 -10.40448,-11.875096 -0.34108,-0.134744 -4.82989,5.040446 -9.97511,11.500426 l -9.35498,11.7454 v 82.88247 82.88247 h 19.75945 19.75945 v -82.75278 z m 89.12773,-0.12597 v -82.87876 l -9.77254,-11.50415 c -5.3749,-6.32727 -10.06213,-11.616119 -10.41606,-11.752984 -0.35393,-0.136865 -4.84803,5.063124 -9.9869,11.555524 l -9.3434,11.80434 v 82.82739 82.82737 h 19.75945 19.75945 V 205.93761 Z M 133.27118,244.2525 v -7.98786 l -11.14097,-0.23462 -11.14096,-0.23461 v 8.45709 8.45708 l 11.14096,-0.2346 11.14097,-0.23462 z m 89.36838,0.21021 -0.24065,-8.19807 -11.14097,-0.23462 -11.14096,-0.23461 v 8.43268 8.43268 h 11.38162 11.38161 z m 89.12773,0 -0.24065,-8.19807 h -10.93076 -10.93076 l -0.24065,8.19807 -0.24066,8.19806 h 11.41207 11.41206 z m 89.12773,0 -0.24065,-8.19807 h -10.93076 -10.93076 l -0.24066,8.19807 -0.24065,8.19806 h 11.41207 11.41206 z M 222.81932,206.41526 V 189.5987 h -11.35117 -11.35117 v 16.81656 16.81655 h 11.35117 11.35117 z m 89.12773,0 V 189.5987 H 300.59588 289.2447 v 16.81656 16.81655 h 11.35118 11.35117 z M 133.69159,168.1576 v -7.98786 h -11.35117 -11.35117 v 7.98786 7.98786 h 11.35117 11.35117 z m 89.12773,0 v -7.98786 h -11.35117 -11.35117 v 7.98786 7.98786 h 11.35117 11.35117 z m 89.12773,0 v -7.98786 H 300.59588 289.2447 v 7.98786 7.98786 h 11.35118 11.35117 z m 89.12773,0 v -7.98786 h -11.35117 -11.35118 v 7.98786 7.98786 h 11.35118 11.35117 z"
         id="path419" /><text
         xml:space="preserve"
         style="font-style:normal;font-variant:normal;font-weight:bold;font-stretch:normal;font-size:64px;font-family:Arial;-inkscape-font-specification:'Arial, Bold';font-variant-ligatures:normal;font-variant-caps:normal;font-variant-numeric:normal;font-variant-east-asian:normal;fill:#f9f9f9"
         x="38.359375"
         y="362.8092"
         id="text765"><tspan
           sodipodi:role="line"
           id="tspan769"
           x="38.359375"
           y="362.8092">GATECALLER</tspan></text><text
         xml:space="preserve"
         style="font-style:normal;font-variant:normal;font-weight:bold;font-stretch:normal;font-size:26.6667px;font-family:Arial;-inkscape-font-specification:'Arial, Bold';font-variant-ligatures:normal;font-variant-caps:normal;font-variant-numeric:normal;font-variant-east-asian:normal;fill:#b3b3b3"
         x="52.372128"
         y="415.97803"
         id="text872"><tspan
           sodipodi:role="line"
           id="tspan874"
           x="52.372128"
           y="415.97803">CREATED BY:</tspan></text><text
         xml:space="preserve"
         style="font-style:normal;font-variant:normal;font-weight:bold;font-stretch:normal;font-size:26.6667px;font-family:Arial;-inkscape-font-specification:'Arial, Bold';font-variant-ligatures:normal;font-variant-caps:normal;font-variant-numeric:normal;font-variant-east-asian:normal;fill:#b3b3b3"
         x="271.82816"
         y="416.30356"
         id="text878"><tspan
           sodipodi:role="line"
           id="tspan876"
           x="271.82816"
           y="416.30356">POWERED BY:</tspan></text><text
         xml:space="preserve"
         style="font-style:normal;font-variant:normal;font-weight:bold;font-stretch:normal;font-size:26.6667px;font-family:Arial;-inkscape-font-specification:'Arial, Bold';font-variant-ligatures:normal;font-variant-caps:normal;font-variant-numeric:normal;font-variant-east-asian:normal;fill:#ffffff"
         x="81.877373"
         y="449.35211"
         id="text994"><tspan
           sodipodi:role="line"
           id="tspan992"
           x="81.877373"
           y="449.35211">PRODUO</tspan></text><text
         xml:space="preserve"
         style="font-style:normal;font-variant:normal;font-weight:bold;font-stretch:normal;font-size:26.6667px;font-family:Arial;-inkscape-font-specification:'Arial, Bold';font-variant-ligatures:normal;font-variant-caps:normal;font-variant-numeric:normal;font-variant-east-asian:normal;fill:#ffffff"
         x="297.83081"
         y="449.35211"
         id="text1100"><tspan
           sodipodi:role="line"
           id="tspan1098"
           x="297.83081"
           y="449.35211">.NET MAUI</tspan></text></g></g></svg>
