<?xml version="1.0" encoding="UTF-8" standalone="no"?>
<!-- Created with Inkscape (http://www.inkscape.org/) -->

<svg
   width="512"
   height="512"
   viewBox="0 0 512 512"
   version="1.1"
   id="svg5"
   xml:space="preserve"
   inkscape:export-filename="gate_caller_splash2.svg"
   inkscape:export-xdpi="96"
   inkscape:export-ydpi="96"
   sodipodi:docname="appiconfg.svg"
   inkscape:version="1.2.1 (9c6d41e410, 2022-07-14)"
   xmlns:inkscape="http://www.inkscape.org/namespaces/inkscape"
   xmlns:sodipodi="http://sodipodi.sourceforge.net/DTD/sodipodi-0.dtd"
   xmlns="http://www.w3.org/2000/svg"
   xmlns:svg="http://www.w3.org/2000/svg"><sodipodi:namedview
     id="namedview7"
     pagecolor="#7e1888"
     bordercolor="#eeeeee"
     borderopacity="1"
     inkscape:showpageshadow="0"
     inkscape:pageopacity="0"
     inkscape:pagecheckerboard="0"
     inkscape:deskcolor="#505050"
     inkscape:document-units="px"
     showgrid="true"
     inkscape:lockguides="false"
     inkscape:zoom="0.921875"
     inkscape:cx="-86.237288"
     inkscape:cy="314.57627"
     inkscape:window-width="1680"
     inkscape:window-height="987"
     inkscape:window-x="-8"
     inkscape:window-y="-8"
     inkscape:window-maximized="1"
     inkscape:current-layer="layer1" /><defs
     id="defs2"><style
       id="style168">.cls-1{fill:none;stroke:#333;stroke-linecap:round;stroke-linejoin:round;stroke-width:2px;}</style></defs><g
     inkscape:label="Layer 1"
     inkscape:groupmode="layer"
     id="layer1"><g
       id="g1191"
       transform="translate(0,-9.6695102)"><g
         id="Layer_2-2"
         data-name="Layer 2"
         transform="matrix(6.9322901,0,0,7.1253209,107.46891,158.02085)"><polygon
           class="cls-1"
           points="13.75,30.56 6.16,30.56 6.16,5.63 9.83,1 13.75,5.63 "
           id="polygon174" /><polygon
           class="cls-1"
           points="26.49,30.56 18.91,30.56 18.91,5.63 22.58,1 26.49,5.63 "
           id="polygon176" /><polygon
           class="cls-1"
           points="39.24,30.56 31.65,30.56 31.65,5.63 35.32,1 39.24,5.63 "
           id="polygon178" /><rect
           class="cls-1"
           x="13.75"
           y="21.139999"
           width="5.1599998"
           height="4.21"
           id="rect180" /><rect
           class="cls-1"
           x="26.49"
           y="21.139999"
           width="5.1599998"
           height="4.21"
           id="rect182" /><rect
           class="cls-1"
           x="13.75"
           y="10.22"
           width="5.1599998"
           height="4.21"
           id="rect184" /><rect
           class="cls-1"
           x="1"
           y="21.139999"
           width="5.1599998"
           height="4.21"
           id="rect186" /><rect
           class="cls-1"
           x="1"
           y="10.22"
           width="5.1599998"
           height="4.21"
           id="rect188" /><rect
           class="cls-1"
           x="26.49"
           y="10.22"
           width="5.1599998"
           height="4.21"
           id="rect190" /><rect
           class="cls-1"
           x="39.240002"
           y="21.139999"
           width="5.1599998"
           height="4.21"
           id="rect192" /><rect
           class="cls-1"
           x="39.240002"
           y="10.22"
           width="5.1599998"
           height="4.21"
           id="rect194" /></g><path
         style="fill:#f9f9f9;stroke-width:0.840266"
         d="m 135.84395,373.67714 c -2.04426,-2.04562 -2.06179,-2.19885 -2.06179,-18.0208 v -15.95766 l -16.03421,-0.26108 -16.03422,-0.26109 -2.025499,-2.35837 c -1.994523,-2.32231 -2.0255,-2.61535 -2.0255,-19.16065 0,-22.48244 -1.493932,-20.92859 20.121499,-20.92859 h 15.99793 v -16.81093 -16.81094 h -15.47531 c -15.42318,0 -15.48401,-0.007 -18.05971,-2.17609 l -2.584409,-2.17608 v -17.1947 c 0,-22.93984 -1.527747,-21.32102 20.121499,-21.32102 h 15.99793 l 0.023,-14.07916 0.0229,-14.07916 13.66748,-17.22178 c 7.51712,-9.47199 14.62038,-17.757 15.78504,-18.41114 3.99522,-2.24395 5.76133,-0.84606 19.72931,15.61587 19.26227,22.70153 17.13129,18.41382 17.13129,34.46965 v 13.70572 h 11.33983 11.33981 v -13.93456 -13.93457 l 13.99443,-17.66535 c 7.69694,-9.71594 14.85095,-18.05587 15.89781,-18.53316 3.82081,-1.74204 5.75293,-0.15371 19.38657,15.93696 7.3489,8.67329 14.1983,16.86082 15.22089,18.1945 1.74457,2.27527 1.85926,3.27341 1.85926,16.18052 v 13.75566 h 11.33983 11.33982 v -13.89397 -13.89396 l 14.0058,-17.71113 c 7.70319,-9.74113 14.85721,-18.09933 15.8978,-18.57377 3.88937,-1.7733 5.82781,-0.1778 19.83537,16.32621 7.52401,8.86495 14.33903,17.08801 15.14447,18.27347 1.2435,1.8302 1.46528,4.2161 1.46998,15.81427 l 0.006,13.65888 h 15.99793 c 21.62518,0 20.1215,-1.57231 20.1215,21.04014 v 16.91379 l -2.45535,2.45698 -2.45533,2.45698 h -15.60438 -15.60437 v 16.81094 16.81093 h 15.99793 c 21.61544,0 20.1215,-1.55385 20.1215,20.92859 0,16.5453 -0.031,16.83834 -2.0255,19.16065 l -2.02549,2.35837 -16.03422,0.26109 -16.03422,0.26108 v 15.95766 c 0,15.82195 -0.0176,15.97518 -2.06179,18.0208 l -2.06178,2.06316 -28.80774,-0.0267 c -21.32044,-0.0198 -29.15411,-0.29286 -30.14049,-1.05068 -2.9011,-2.22889 -3.28715,-4.56376 -3.28715,-19.881 V 339.5968 h -11.34029 -11.33983 v 15.1851 c 0,15.31724 -0.38605,17.65211 -3.28715,19.881 -0.98603,0.75756 -8.78565,1.0309 -29.97967,1.05068 l -28.64688,0.0267 -2.22263,-2.06122 -2.22262,-2.06123 v -16.0105 -16.01052 H 211.481 200.14119 v 15.09028 c 0,16.08639 -0.48004,18.5552 -3.9121,20.11999 -1.36997,0.62462 -11.3522,0.93323 -30.18508,0.93323 h -28.13822 z m 50.85738,-94.12651 V 196.8097 l -10.11644,-11.84755 c -5.56405,-6.51616 -10.46802,-11.63015 -10.89769,-11.3644 -0.42969,0.26573 -4.76014,5.53573 -9.62324,11.71113 l -8.842,11.22797 v 82.87735 82.87735 h 19.73968 19.73969 z m 89.0386,0.0158 v -82.72514 l -9.77455,-11.62624 c -5.37599,-6.39442 -10.05333,-11.73644 -10.39407,-11.87113 -0.34074,-0.1347 -4.82506,5.03877 -9.96513,11.49659 l -9.34563,11.74148 v 82.85479 82.85478 h 19.73969 19.73969 v -82.72514 z m 89.0386,-0.12593 v -82.85107 l -9.76277,-11.5003 c -5.36952,-6.32516 -10.05206,-11.61224 -10.40564,-11.74907 -0.35357,-0.13681 -4.84318,5.06144 -9.97691,11.55167 l -9.33406,11.8004 v 82.79973 82.7997 h 19.73969 19.73969 v -82.85107 z m -231.41636,38.30209 v -7.9852 l -11.12983,-0.23454 -11.12982,-0.23453 v 8.45427 8.45425 l 11.12982,-0.23452 11.12983,-0.23454 z m 89.27902,0.21013 -0.24042,-8.19533 -11.12982,-0.23454 -11.12982,-0.23453 v 8.42986 8.42987 h 11.37024 11.37022 z m 89.03859,0 -0.2404,-8.19533 h -10.91983 -10.91983 l -0.24041,8.19533 -0.24042,8.19533 h 11.40066 11.40065 z m 89.03861,0 -0.24041,-8.19533 h -10.91983 -10.91983 l -0.24042,8.19533 -0.24041,8.19533 h 11.40066 11.40065 z M 222.82077,279.91797 v -16.81094 h -11.33983 -11.33981 v 16.81094 16.81093 h 11.33981 11.33983 z m 89.03859,0 v -16.81094 h -11.33981 -11.33983 v 16.81094 16.81093 h 11.33983 11.33981 z m -178.0772,-38.24488 v -7.98519 h -11.33982 -11.33982 v 7.98519 7.98519 h 11.33982 11.33982 z m 89.03861,0 v -7.98519 h -11.33983 -11.33981 v 7.98519 7.98519 h 11.33981 11.33983 z m 89.03859,0 v -7.98519 h -11.33981 -11.33983 v 7.98519 7.98519 h 11.33983 11.33981 z m 89.03861,0 v -7.98519 h -11.33982 -11.33983 v 7.98519 7.98519 h 11.33983 11.33982 z"
         id="path419" /><path
         style="fill:#0000ff;stroke-width:1.08475"
         d=""
         id="path326"
         transform="translate(0,9.6695102)" /></g></g></svg>
